<svg width="30" height="30" viewBox="0 0 30 30" fill="none" xmlns="http://www.w3.org/2000/svg">
<path d="M27.5 2.30769H23.75V1.15385C23.75 0.847827 23.6183 0.554342 23.3839 0.337954C23.1495 0.121566 22.8315 0 22.5 0C22.1685 0 21.8505 0.121566 21.6161 0.337954C21.3817 0.554342 21.25 0.847827 21.25 1.15385V2.30769H8.75V1.15385C8.75 0.847827 8.6183 0.554342 8.38388 0.337954C8.14946 0.121566 7.83152 0 7.5 0C7.16848 0 6.85054 0.121566 6.61612 0.337954C6.3817 0.554342 6.25 0.847827 6.25 1.15385V2.30769H2.5C1.83696 2.30769 1.20107 2.55082 0.732233 2.9836C0.263392 3.41638 0 4.00335 0 4.61538V27.6923C0 28.3043 0.263392 28.8913 0.732233 29.3241C1.20107 29.7569 1.83696 30 2.5 30H27.5C28.163 30 28.7989 29.7569 29.2678 29.3241C29.7366 28.8913 30 28.3043 30 27.6923V4.61538C30 4.00335 29.7366 3.41638 29.2678 2.9836C28.7989 2.55082 28.163 2.30769 27.5 2.30769ZM12.5 24.2308C12.5 24.5368 12.3683 24.8303 12.1339 25.0467C11.8995 25.2631 11.5815 25.3846 11.25 25.3846C10.9185 25.3846 10.6005 25.2631 10.3661 25.0467C10.1317 24.8303 10 24.5368 10 24.2308V16.8663L9.30938 17.1865C9.01266 17.3235 8.66917 17.346 8.35446 17.2492C8.03975 17.1523 7.7796 16.9441 7.63125 16.6702C7.48289 16.3963 7.45848 16.0792 7.56339 15.7887C7.66829 15.4982 7.89391 15.2581 8.19062 15.1212L10.6906 13.9673C10.8813 13.8792 11.0931 13.8377 11.3061 13.8465C11.5191 13.8553 11.7261 13.9143 11.9074 14.0178C12.0887 14.1213 12.2383 14.2658 12.3421 14.4378C12.4458 14.6097 12.5002 14.8032 12.5 15V24.2308ZM21.25 23.0769C21.5815 23.0769 21.8995 23.1985 22.1339 23.4149C22.3683 23.6313 22.5 23.9248 22.5 24.2308C22.5 24.5368 22.3683 24.8303 22.1339 25.0467C21.8995 25.2631 21.5815 25.3846 21.25 25.3846H16.25C16.0179 25.3846 15.7903 25.3249 15.5928 25.2123C15.3954 25.0996 15.2358 24.9384 15.132 24.7468C15.0282 24.5551 14.9842 24.3406 15.005 24.1271C15.0259 23.9137 15.1107 23.7099 15.25 23.5385L19.7469 18.0043C19.8492 17.8786 19.9225 17.735 19.9625 17.5822C20.0025 17.4293 20.0082 17.2706 19.9793 17.1157C19.9504 16.9607 19.8876 16.8129 19.7946 16.6812C19.7016 16.5495 19.5804 16.4367 19.4385 16.3498C19.2965 16.2629 19.1369 16.2037 18.9693 16.1758C18.8017 16.1479 18.6297 16.1519 18.4638 16.1876C18.2979 16.2233 18.1417 16.2898 18.0047 16.3832C17.8677 16.4767 17.7529 16.5949 17.6672 16.7308C17.5875 16.8662 17.4793 16.9855 17.3489 17.0817C17.2185 17.1778 17.0685 17.2489 16.9078 17.2907C16.7472 17.3325 16.5791 17.3442 16.4135 17.3251C16.2478 17.3059 16.088 17.2564 15.9435 17.1793C15.7989 17.1022 15.6726 16.9992 15.5719 16.8763C15.4711 16.7535 15.3981 16.6132 15.3571 16.4639C15.316 16.3145 15.3078 16.1591 15.3329 16.0068C15.358 15.8544 15.4159 15.7083 15.5031 15.5769C15.916 14.9173 16.5531 14.4019 17.3156 14.1105C18.0782 13.8191 18.9235 13.7681 19.7207 13.9653C20.5178 14.1625 21.2222 14.5969 21.7247 15.2012C22.2272 15.8055 22.4997 16.5459 22.5 17.3077C22.5027 18.0602 22.2369 18.7926 21.7438 19.3918L18.75 23.0769H21.25ZM2.5 9.23077V4.61538H6.25V5.76923C6.25 6.07525 6.3817 6.36873 6.61612 6.58512C6.85054 6.80151 7.16848 6.92308 7.5 6.92308C7.83152 6.92308 8.14946 6.80151 8.38388 6.58512C8.6183 6.36873 8.75 6.07525 8.75 5.76923V4.61538H21.25V5.76923C21.25 6.07525 21.3817 6.36873 21.6161 6.58512C21.8505 6.80151 22.1685 6.92308 22.5 6.92308C22.8315 6.92308 23.1495 6.80151 23.3839 6.58512C23.6183 6.36873 23.75 6.07525 23.75 5.76923V4.61538H27.5V9.23077H2.5Z" fill="#2F89FC"/>
</svg>
