<svg width="32" height="32" viewBox="0 0 32 32" fill="none" xmlns="http://www.w3.org/2000/svg">
<path d="M4.17603 2.164C2.98803 1.57 1.67003 2.7 2.07703 3.965L4.93503 12.848C4.99122 13.0226 5.09436 13.1784 5.23317 13.2984C5.37197 13.4183 5.5411 13.4977 5.72203 13.528L17.591 15.507C18.148 15.6 18.148 16.4 17.591 16.493L5.72303 18.471C5.54192 18.5011 5.37258 18.5805 5.23359 18.7004C5.09459 18.8203 4.9913 18.9762 4.93503 19.151L2.07703 28.037C1.67003 29.302 2.98703 30.432 4.17603 29.838L29.17 17.343C30.276 16.79 30.276 15.213 29.17 14.659L4.17603 2.164Z" fill="#2F89FC"/>
</svg>
